<mxfile host="Electron" modified="2024-04-19T13:50:29.719Z" agent="Mozilla/5.0 (Windows NT 10.0; Win64; x64) AppleWebKit/537.36 (KHTML, like Gecko) draw.io/22.0.3 Chrome/114.0.5735.289 Electron/25.8.4 Safari/537.36" etag="aEp2fWgHTANDyM3GOr3R" version="22.0.3" type="device">
  <diagram name="Página-1" id="dLSwd7cAOcYwAjb6rLxS">
    <mxGraphModel dx="1461" dy="622" grid="1" gridSize="10" guides="1" tooltips="1" connect="1" arrows="1" fold="1" page="1" pageScale="1" pageWidth="827" pageHeight="1169" math="0" shadow="0">
      <root>
        <mxCell id="0" />
        <mxCell id="1" parent="0" />
        <mxCell id="PMqnE4ja0fSdaOJwFotB-1" value="Materias" style="rounded=1;arcSize=10;whiteSpace=wrap;html=1;align=center;" parent="1" vertex="1">
          <mxGeometry x="185" y="572.5" width="120" height="40" as="geometry" />
        </mxCell>
        <mxCell id="PMqnE4ja0fSdaOJwFotB-2" value="Persona" style="rounded=1;arcSize=10;whiteSpace=wrap;html=1;align=center;" parent="1" vertex="1">
          <mxGeometry x="586" y="370" width="120" height="40" as="geometry" />
        </mxCell>
        <mxCell id="PMqnE4ja0fSdaOJwFotB-3" value="Usuarios" style="rounded=1;arcSize=10;whiteSpace=wrap;html=1;align=center;" parent="1" vertex="1">
          <mxGeometry x="586" y="572.5" width="120" height="40" as="geometry" />
        </mxCell>
        <mxCell id="PMqnE4ja0fSdaOJwFotB-4" value="UsuXRol" style="shape=rhombus;perimeter=rhombusPerimeter;whiteSpace=wrap;html=1;align=center;" parent="1" vertex="1">
          <mxGeometry x="785" y="562.5" width="120" height="60" as="geometry" />
        </mxCell>
        <mxCell id="PMqnE4ja0fSdaOJwFotB-9" value="" style="shape=rhombus;perimeter=rhombusPerimeter;whiteSpace=wrap;html=1;align=center;" parent="1" vertex="1">
          <mxGeometry x="185" y="430" width="120" height="60" as="geometry" />
        </mxCell>
        <mxCell id="PMqnE4ja0fSdaOJwFotB-12" value="Clases" style="rounded=1;arcSize=10;whiteSpace=wrap;html=1;align=center;" parent="1" vertex="1">
          <mxGeometry x="385" y="690" width="120" height="40" as="geometry" />
        </mxCell>
        <mxCell id="PMqnE4ja0fSdaOJwFotB-18" value="DNI" style="ellipse;whiteSpace=wrap;html=1;align=center;fontStyle=4;" parent="1" vertex="1">
          <mxGeometry x="515" y="330" width="55" height="30" as="geometry" />
        </mxCell>
        <mxCell id="PMqnE4ja0fSdaOJwFotB-23" value="CODIGO" style="ellipse;whiteSpace=wrap;html=1;align=center;fontStyle=4;" parent="1" vertex="1">
          <mxGeometry x="548" y="525" width="60" height="30" as="geometry" />
        </mxCell>
        <mxCell id="PMqnE4ja0fSdaOJwFotB-24" value="Nombre" style="ellipse;whiteSpace=wrap;html=1;align=center;" parent="1" vertex="1">
          <mxGeometry x="580" y="310" width="60" height="30" as="geometry" />
        </mxCell>
        <mxCell id="PMqnE4ja0fSdaOJwFotB-25" value="Apellido" style="ellipse;whiteSpace=wrap;html=1;align=center;" parent="1" vertex="1">
          <mxGeometry x="656" y="310" width="60" height="30" as="geometry" />
        </mxCell>
        <mxCell id="PMqnE4ja0fSdaOJwFotB-26" value="Mail" style="ellipse;whiteSpace=wrap;html=1;align=center;" parent="1" vertex="1">
          <mxGeometry x="656" y="517.5" width="40" height="30" as="geometry" />
        </mxCell>
        <mxCell id="PMqnE4ja0fSdaOJwFotB-27" value="Contraseña" style="ellipse;whiteSpace=wrap;html=1;align=center;" parent="1" vertex="1">
          <mxGeometry x="705" y="532.5" width="70" height="30" as="geometry" />
        </mxCell>
        <mxCell id="PMqnE4ja0fSdaOJwFotB-28" value="Nombre" style="ellipse;whiteSpace=wrap;html=1;align=center;" parent="1" vertex="1">
          <mxGeometry x="170" y="512.5" width="57" height="30" as="geometry" />
        </mxCell>
        <mxCell id="PMqnE4ja0fSdaOJwFotB-29" value="CODIGO" style="ellipse;whiteSpace=wrap;html=1;align=center;fontStyle=4;" parent="1" vertex="1">
          <mxGeometry x="120" y="542.5" width="55" height="30" as="geometry" />
        </mxCell>
        <mxCell id="PMqnE4ja0fSdaOJwFotB-30" value="id_carrera" style="ellipse;whiteSpace=wrap;html=1;align=center;" parent="1" vertex="1">
          <mxGeometry x="289" y="520" width="66" height="30" as="geometry" />
        </mxCell>
        <mxCell id="PMqnE4ja0fSdaOJwFotB-31" value="CODIGO_USUARIO" style="ellipse;whiteSpace=wrap;html=1;align=center;fontStyle=4;" parent="1" vertex="1">
          <mxGeometry x="218" y="730" width="137" height="30" as="geometry" />
        </mxCell>
        <mxCell id="PMqnE4ja0fSdaOJwFotB-32" value="CODIGO_MATERIA" style="ellipse;whiteSpace=wrap;html=1;align=center;fontStyle=4;" parent="1" vertex="1">
          <mxGeometry x="253" y="770" width="110" height="30" as="geometry" />
        </mxCell>
        <mxCell id="PMqnE4ja0fSdaOJwFotB-33" value="Fecha" style="ellipse;whiteSpace=wrap;html=1;align=center;" parent="1" vertex="1">
          <mxGeometry x="320" y="810" width="55" height="30" as="geometry" />
        </mxCell>
        <mxCell id="PMqnE4ja0fSdaOJwFotB-34" value="Hora" style="ellipse;whiteSpace=wrap;html=1;align=center;" parent="1" vertex="1">
          <mxGeometry x="385" y="840" width="40" height="30" as="geometry" />
        </mxCell>
        <mxCell id="PMqnE4ja0fSdaOJwFotB-35" value="Temas" style="ellipse;whiteSpace=wrap;html=1;align=center;" parent="1" vertex="1">
          <mxGeometry x="450" y="840" width="50" height="30" as="geometry" />
        </mxCell>
        <mxCell id="PMqnE4ja0fSdaOJwFotB-125" style="edgeStyle=orthogonalEdgeStyle;rounded=0;orthogonalLoop=1;jettySize=auto;html=1;exitX=0.5;exitY=1;exitDx=0;exitDy=0;entryX=0.5;entryY=0;entryDx=0;entryDy=0;" parent="1" source="PMqnE4ja0fSdaOJwFotB-56" target="PMqnE4ja0fSdaOJwFotB-12" edge="1">
          <mxGeometry relative="1" as="geometry" />
        </mxCell>
        <mxCell id="PMqnE4ja0fSdaOJwFotB-56" value="" style="shape=rhombus;perimeter=rhombusPerimeter;whiteSpace=wrap;html=1;align=center;" parent="1" vertex="1">
          <mxGeometry x="385" y="562.5" width="120" height="60" as="geometry" />
        </mxCell>
        <mxCell id="PMqnE4ja0fSdaOJwFotB-57" value="Carreras" style="rounded=1;arcSize=10;whiteSpace=wrap;html=1;align=center;" parent="1" vertex="1">
          <mxGeometry x="185" y="320" width="120" height="40" as="geometry" />
        </mxCell>
        <mxCell id="PMqnE4ja0fSdaOJwFotB-65" value="Cargo" style="ellipse;whiteSpace=wrap;html=1;align=center;" parent="1" vertex="1">
          <mxGeometry x="716" y="332.5" width="50" height="27.5" as="geometry" />
        </mxCell>
        <mxCell id="PMqnE4ja0fSdaOJwFotB-69" value="ID" style="ellipse;whiteSpace=wrap;html=1;align=center;fontStyle=4;" parent="1" vertex="1">
          <mxGeometry x="159" y="280" width="36" height="30" as="geometry" />
        </mxCell>
        <mxCell id="PMqnE4ja0fSdaOJwFotB-70" value="Titulo_abreviado" style="ellipse;whiteSpace=wrap;html=1;align=center;" parent="1" vertex="1">
          <mxGeometry x="195" y="260" width="100" height="30" as="geometry" />
        </mxCell>
        <mxCell id="PMqnE4ja0fSdaOJwFotB-71" value="Descripcion" style="ellipse;whiteSpace=wrap;html=1;align=center;" parent="1" vertex="1">
          <mxGeometry x="292" y="280" width="71" height="30" as="geometry" />
        </mxCell>
        <mxCell id="PMqnE4ja0fSdaOJwFotB-75" value="Comisión" style="ellipse;whiteSpace=wrap;html=1;align=center;" parent="1" vertex="1">
          <mxGeometry x="532.5" y="770" width="65" height="30" as="geometry" />
        </mxCell>
        <mxCell id="PMqnE4ja0fSdaOJwFotB-80" value="RolXMod" style="shape=rhombus;perimeter=rhombusPerimeter;whiteSpace=wrap;html=1;align=center;" parent="1" vertex="1">
          <mxGeometry x="1185" y="562.5" width="120" height="60" as="geometry" />
        </mxCell>
        <mxCell id="PMqnE4ja0fSdaOJwFotB-92" value="ES" style="strokeWidth=2;html=1;shape=mxgraph.flowchart.merge_or_storage;whiteSpace=wrap;" parent="1" vertex="1">
          <mxGeometry x="608" y="462.5" width="76" height="55" as="geometry" />
        </mxCell>
        <mxCell id="PMqnE4ja0fSdaOJwFotB-93" value="" style="endArrow=none;html=1;rounded=0;exitX=0.5;exitY=1;exitDx=0;exitDy=0;entryX=0.5;entryY=0;entryDx=0;entryDy=0;entryPerimeter=0;" parent="1" source="PMqnE4ja0fSdaOJwFotB-2" target="PMqnE4ja0fSdaOJwFotB-92" edge="1">
          <mxGeometry relative="1" as="geometry">
            <mxPoint x="735" y="490" as="sourcePoint" />
            <mxPoint x="895" y="490" as="targetPoint" />
          </mxGeometry>
        </mxCell>
        <mxCell id="PMqnE4ja0fSdaOJwFotB-94" value="" style="endArrow=none;html=1;rounded=0;exitX=0.5;exitY=1;exitDx=0;exitDy=0;entryX=0.5;entryY=0;entryDx=0;entryDy=0;exitPerimeter=0;" parent="1" source="PMqnE4ja0fSdaOJwFotB-92" target="PMqnE4ja0fSdaOJwFotB-3" edge="1">
          <mxGeometry relative="1" as="geometry">
            <mxPoint x="656" y="420" as="sourcePoint" />
            <mxPoint x="656" y="495" as="targetPoint" />
          </mxGeometry>
        </mxCell>
        <mxCell id="PMqnE4ja0fSdaOJwFotB-95" value="Roles" style="rounded=1;arcSize=10;whiteSpace=wrap;html=1;align=center;" parent="1" vertex="1">
          <mxGeometry x="985" y="572.5" width="120" height="40" as="geometry" />
        </mxCell>
        <mxCell id="PMqnE4ja0fSdaOJwFotB-96" value="" style="endArrow=none;html=1;rounded=0;exitX=1;exitY=0.5;exitDx=0;exitDy=0;entryX=0;entryY=0.5;entryDx=0;entryDy=0;" parent="1" source="PMqnE4ja0fSdaOJwFotB-3" target="PMqnE4ja0fSdaOJwFotB-4" edge="1">
          <mxGeometry relative="1" as="geometry">
            <mxPoint x="755" y="690" as="sourcePoint" />
            <mxPoint x="915" y="690" as="targetPoint" />
          </mxGeometry>
        </mxCell>
        <mxCell id="PMqnE4ja0fSdaOJwFotB-97" value="" style="endArrow=none;html=1;rounded=0;exitX=1;exitY=0.5;exitDx=0;exitDy=0;entryX=0;entryY=0.5;entryDx=0;entryDy=0;" parent="1" source="PMqnE4ja0fSdaOJwFotB-4" target="PMqnE4ja0fSdaOJwFotB-95" edge="1">
          <mxGeometry relative="1" as="geometry">
            <mxPoint x="716" y="603" as="sourcePoint" />
            <mxPoint x="875" y="603" as="targetPoint" />
          </mxGeometry>
        </mxCell>
        <mxCell id="PMqnE4ja0fSdaOJwFotB-98" value="(1,N)" style="text;html=1;align=center;verticalAlign=middle;resizable=0;points=[];autosize=1;strokeColor=none;fillColor=none;" parent="1" vertex="1">
          <mxGeometry x="705" y="592.5" width="50" height="30" as="geometry" />
        </mxCell>
        <mxCell id="PMqnE4ja0fSdaOJwFotB-99" value="(1,N)" style="text;html=1;align=center;verticalAlign=middle;resizable=0;points=[];autosize=1;strokeColor=none;fillColor=none;" parent="1" vertex="1">
          <mxGeometry x="935" y="595" width="50" height="30" as="geometry" />
        </mxCell>
        <mxCell id="PMqnE4ja0fSdaOJwFotB-100" value="(N.N)" style="text;html=1;align=center;verticalAlign=middle;resizable=0;points=[];autosize=1;strokeColor=none;fillColor=none;" parent="1" vertex="1">
          <mxGeometry x="820" y="625" width="50" height="30" as="geometry" />
        </mxCell>
        <mxCell id="PMqnE4ja0fSdaOJwFotB-101" value="CODIGO" style="ellipse;whiteSpace=wrap;html=1;align=center;fontStyle=4;" parent="1" vertex="1">
          <mxGeometry x="955" y="525" width="70" height="35" as="geometry" />
        </mxCell>
        <mxCell id="PMqnE4ja0fSdaOJwFotB-102" value="Descripcion" style="ellipse;whiteSpace=wrap;html=1;align=center;" parent="1" vertex="1">
          <mxGeometry x="1045" y="525" width="80" height="35" as="geometry" />
        </mxCell>
        <mxCell id="PMqnE4ja0fSdaOJwFotB-103" value="Modulos" style="rounded=1;arcSize=10;whiteSpace=wrap;html=1;align=center;" parent="1" vertex="1">
          <mxGeometry x="1385" y="572.5" width="120" height="40" as="geometry" />
        </mxCell>
        <mxCell id="PMqnE4ja0fSdaOJwFotB-104" value="" style="endArrow=none;html=1;rounded=0;exitX=1;exitY=0.5;exitDx=0;exitDy=0;entryX=0;entryY=0.5;entryDx=0;entryDy=0;" parent="1" source="PMqnE4ja0fSdaOJwFotB-95" target="PMqnE4ja0fSdaOJwFotB-80" edge="1">
          <mxGeometry relative="1" as="geometry">
            <mxPoint x="915" y="603" as="sourcePoint" />
            <mxPoint x="995" y="603" as="targetPoint" />
          </mxGeometry>
        </mxCell>
        <mxCell id="PMqnE4ja0fSdaOJwFotB-105" value="" style="endArrow=none;html=1;rounded=0;exitX=1;exitY=0.5;exitDx=0;exitDy=0;entryX=0;entryY=0.5;entryDx=0;entryDy=0;" parent="1" source="PMqnE4ja0fSdaOJwFotB-80" target="PMqnE4ja0fSdaOJwFotB-103" edge="1">
          <mxGeometry relative="1" as="geometry">
            <mxPoint x="1115" y="603" as="sourcePoint" />
            <mxPoint x="1195" y="603" as="targetPoint" />
          </mxGeometry>
        </mxCell>
        <mxCell id="PMqnE4ja0fSdaOJwFotB-106" value="(1,N)" style="text;html=1;align=center;verticalAlign=middle;resizable=0;points=[];autosize=1;strokeColor=none;fillColor=none;" parent="1" vertex="1">
          <mxGeometry x="1105" y="592.5" width="50" height="30" as="geometry" />
        </mxCell>
        <mxCell id="PMqnE4ja0fSdaOJwFotB-107" value="(1,N)" style="text;html=1;align=center;verticalAlign=middle;resizable=0;points=[];autosize=1;strokeColor=none;fillColor=none;" parent="1" vertex="1">
          <mxGeometry x="1335" y="595" width="50" height="30" as="geometry" />
        </mxCell>
        <mxCell id="PMqnE4ja0fSdaOJwFotB-108" value="(N.N)" style="text;html=1;align=center;verticalAlign=middle;resizable=0;points=[];autosize=1;strokeColor=none;fillColor=none;" parent="1" vertex="1">
          <mxGeometry x="1220" y="625" width="50" height="30" as="geometry" />
        </mxCell>
        <mxCell id="PMqnE4ja0fSdaOJwFotB-109" value="CODIGO" style="ellipse;whiteSpace=wrap;html=1;align=center;fontStyle=4;" parent="1" vertex="1">
          <mxGeometry x="1345" y="525" width="70" height="30" as="geometry" />
        </mxCell>
        <mxCell id="PMqnE4ja0fSdaOJwFotB-110" value="Descripcion" style="ellipse;whiteSpace=wrap;html=1;align=center;" parent="1" vertex="1">
          <mxGeometry x="1435" y="520" width="80" height="35" as="geometry" />
        </mxCell>
        <mxCell id="PMqnE4ja0fSdaOJwFotB-118" value="" style="endArrow=none;html=1;rounded=0;exitX=0;exitY=0.5;exitDx=0;exitDy=0;entryX=1;entryY=0.5;entryDx=0;entryDy=0;" parent="1" source="PMqnE4ja0fSdaOJwFotB-3" target="PMqnE4ja0fSdaOJwFotB-56" edge="1">
          <mxGeometry relative="1" as="geometry">
            <mxPoint x="656" y="527" as="sourcePoint" />
            <mxPoint x="656" y="582" as="targetPoint" />
          </mxGeometry>
        </mxCell>
        <mxCell id="PMqnE4ja0fSdaOJwFotB-119" value="" style="endArrow=none;html=1;rounded=0;entryX=1;entryY=0.5;entryDx=0;entryDy=0;exitX=0;exitY=0.5;exitDx=0;exitDy=0;" parent="1" source="PMqnE4ja0fSdaOJwFotB-56" target="PMqnE4ja0fSdaOJwFotB-1" edge="1">
          <mxGeometry relative="1" as="geometry">
            <mxPoint x="385" y="640" as="sourcePoint" />
            <mxPoint x="515" y="602" as="targetPoint" />
          </mxGeometry>
        </mxCell>
        <mxCell id="PMqnE4ja0fSdaOJwFotB-126" value="" style="endArrow=none;html=1;rounded=0;exitX=1;exitY=0.5;exitDx=0;exitDy=0;entryX=0.103;entryY=0.004;entryDx=0;entryDy=0;entryPerimeter=0;" parent="1" source="PMqnE4ja0fSdaOJwFotB-29" target="PMqnE4ja0fSdaOJwFotB-1" edge="1">
          <mxGeometry relative="1" as="geometry">
            <mxPoint x="185" y="670" as="sourcePoint" />
            <mxPoint x="345" y="670" as="targetPoint" />
          </mxGeometry>
        </mxCell>
        <mxCell id="PMqnE4ja0fSdaOJwFotB-127" value="" style="endArrow=none;html=1;rounded=0;exitX=0.5;exitY=1;exitDx=0;exitDy=0;entryX=0.25;entryY=0;entryDx=0;entryDy=0;" parent="1" source="PMqnE4ja0fSdaOJwFotB-28" target="PMqnE4ja0fSdaOJwFotB-1" edge="1">
          <mxGeometry relative="1" as="geometry">
            <mxPoint x="185" y="568" as="sourcePoint" />
            <mxPoint x="198" y="584" as="targetPoint" />
          </mxGeometry>
        </mxCell>
        <mxCell id="PMqnE4ja0fSdaOJwFotB-128" value="" style="endArrow=none;html=1;rounded=0;exitX=0;exitY=1;exitDx=0;exitDy=0;entryX=0.75;entryY=0;entryDx=0;entryDy=0;" parent="1" source="PMqnE4ja0fSdaOJwFotB-30" target="PMqnE4ja0fSdaOJwFotB-1" edge="1">
          <mxGeometry relative="1" as="geometry">
            <mxPoint x="224" y="548" as="sourcePoint" />
            <mxPoint x="225" y="583" as="targetPoint" />
          </mxGeometry>
        </mxCell>
        <mxCell id="PMqnE4ja0fSdaOJwFotB-130" value="" style="endArrow=none;html=1;rounded=0;exitX=1;exitY=1;exitDx=0;exitDy=0;entryX=0.25;entryY=0;entryDx=0;entryDy=0;" parent="1" source="PMqnE4ja0fSdaOJwFotB-69" target="PMqnE4ja0fSdaOJwFotB-57" edge="1">
          <mxGeometry relative="1" as="geometry">
            <mxPoint x="195" y="290" as="sourcePoint" />
            <mxPoint x="355" y="290" as="targetPoint" />
          </mxGeometry>
        </mxCell>
        <mxCell id="PMqnE4ja0fSdaOJwFotB-131" value="" style="endArrow=none;html=1;rounded=0;exitX=0.5;exitY=1;exitDx=0;exitDy=0;entryX=0.5;entryY=0;entryDx=0;entryDy=0;" parent="1" source="PMqnE4ja0fSdaOJwFotB-70" target="PMqnE4ja0fSdaOJwFotB-57" edge="1">
          <mxGeometry relative="1" as="geometry">
            <mxPoint x="190" y="316" as="sourcePoint" />
            <mxPoint x="201" y="331" as="targetPoint" />
          </mxGeometry>
        </mxCell>
        <mxCell id="PMqnE4ja0fSdaOJwFotB-132" value="" style="endArrow=none;html=1;rounded=0;exitX=0;exitY=1;exitDx=0;exitDy=0;entryX=0.75;entryY=0;entryDx=0;entryDy=0;" parent="1" source="PMqnE4ja0fSdaOJwFotB-71" target="PMqnE4ja0fSdaOJwFotB-57" edge="1">
          <mxGeometry relative="1" as="geometry">
            <mxPoint x="297.769" y="301.99" as="sourcePoint" />
            <mxPoint x="255" y="330" as="targetPoint" />
          </mxGeometry>
        </mxCell>
        <mxCell id="PMqnE4ja0fSdaOJwFotB-133" value="" style="endArrow=none;html=1;rounded=0;exitX=0.5;exitY=1;exitDx=0;exitDy=0;entryX=0.5;entryY=0;entryDx=0;entryDy=0;" parent="1" source="PMqnE4ja0fSdaOJwFotB-57" target="PMqnE4ja0fSdaOJwFotB-9" edge="1">
          <mxGeometry relative="1" as="geometry">
            <mxPoint x="205" y="390" as="sourcePoint" />
            <mxPoint x="365" y="390" as="targetPoint" />
          </mxGeometry>
        </mxCell>
        <mxCell id="PMqnE4ja0fSdaOJwFotB-134" value="" style="endArrow=none;html=1;rounded=0;exitX=0.5;exitY=1;exitDx=0;exitDy=0;entryX=0.5;entryY=0;entryDx=0;entryDy=0;" parent="1" source="PMqnE4ja0fSdaOJwFotB-9" target="PMqnE4ja0fSdaOJwFotB-1" edge="1">
          <mxGeometry relative="1" as="geometry">
            <mxPoint x="255" y="320" as="sourcePoint" />
            <mxPoint x="255" y="420" as="targetPoint" />
          </mxGeometry>
        </mxCell>
        <mxCell id="PMqnE4ja0fSdaOJwFotB-136" value="" style="endArrow=none;html=1;rounded=0;exitX=1;exitY=1;exitDx=0;exitDy=0;entryX=0;entryY=0;entryDx=0;entryDy=0;" parent="1" source="PMqnE4ja0fSdaOJwFotB-18" target="PMqnE4ja0fSdaOJwFotB-2" edge="1">
          <mxGeometry relative="1" as="geometry">
            <mxPoint x="595" y="360" as="sourcePoint" />
            <mxPoint x="755" y="360" as="targetPoint" />
          </mxGeometry>
        </mxCell>
        <mxCell id="PMqnE4ja0fSdaOJwFotB-137" value="" style="endArrow=none;html=1;rounded=0;exitX=0.5;exitY=1;exitDx=0;exitDy=0;entryX=0.25;entryY=0;entryDx=0;entryDy=0;" parent="1" source="PMqnE4ja0fSdaOJwFotB-24" target="PMqnE4ja0fSdaOJwFotB-2" edge="1">
          <mxGeometry relative="1" as="geometry">
            <mxPoint x="572" y="366" as="sourcePoint" />
            <mxPoint x="596" y="380" as="targetPoint" />
          </mxGeometry>
        </mxCell>
        <mxCell id="PMqnE4ja0fSdaOJwFotB-138" value="" style="endArrow=none;html=1;rounded=0;exitX=0.369;exitY=0.967;exitDx=0;exitDy=0;entryX=0.75;entryY=0;entryDx=0;entryDy=0;exitPerimeter=0;" parent="1" source="PMqnE4ja0fSdaOJwFotB-25" target="PMqnE4ja0fSdaOJwFotB-2" edge="1">
          <mxGeometry relative="1" as="geometry">
            <mxPoint x="615" y="340" as="sourcePoint" />
            <mxPoint x="626" y="380" as="targetPoint" />
          </mxGeometry>
        </mxCell>
        <mxCell id="PMqnE4ja0fSdaOJwFotB-139" value="" style="endArrow=none;html=1;rounded=0;exitX=0;exitY=1;exitDx=0;exitDy=0;" parent="1" source="PMqnE4ja0fSdaOJwFotB-65" edge="1">
          <mxGeometry relative="1" as="geometry">
            <mxPoint x="695" y="336" as="sourcePoint" />
            <mxPoint x="705" y="370" as="targetPoint" />
          </mxGeometry>
        </mxCell>
        <mxCell id="PMqnE4ja0fSdaOJwFotB-142" value="" style="endArrow=none;html=1;rounded=0;exitX=1;exitY=1;exitDx=0;exitDy=0;entryX=0.25;entryY=0;entryDx=0;entryDy=0;" parent="1" source="PMqnE4ja0fSdaOJwFotB-23" target="PMqnE4ja0fSdaOJwFotB-3" edge="1">
          <mxGeometry relative="1" as="geometry">
            <mxPoint x="655" y="550" as="sourcePoint" />
            <mxPoint x="615" y="570" as="targetPoint" />
          </mxGeometry>
        </mxCell>
        <mxCell id="PMqnE4ja0fSdaOJwFotB-143" value="" style="endArrow=none;html=1;rounded=0;exitX=0.5;exitY=1;exitDx=0;exitDy=0;entryX=0.643;entryY=0.022;entryDx=0;entryDy=0;entryPerimeter=0;" parent="1" source="PMqnE4ja0fSdaOJwFotB-26" target="PMqnE4ja0fSdaOJwFotB-3" edge="1">
          <mxGeometry relative="1" as="geometry">
            <mxPoint x="606" y="561" as="sourcePoint" />
            <mxPoint x="626" y="583" as="targetPoint" />
          </mxGeometry>
        </mxCell>
        <mxCell id="PMqnE4ja0fSdaOJwFotB-144" value="" style="endArrow=none;html=1;rounded=0;exitX=0;exitY=1;exitDx=0;exitDy=0;entryX=0.867;entryY=0.008;entryDx=0;entryDy=0;entryPerimeter=0;" parent="1" source="PMqnE4ja0fSdaOJwFotB-27" target="PMqnE4ja0fSdaOJwFotB-3" edge="1">
          <mxGeometry relative="1" as="geometry">
            <mxPoint x="682" y="541" as="sourcePoint" />
            <mxPoint x="673" y="583" as="targetPoint" />
          </mxGeometry>
        </mxCell>
        <mxCell id="PMqnE4ja0fSdaOJwFotB-147" value="" style="endArrow=none;html=1;rounded=0;exitX=1;exitY=1;exitDx=0;exitDy=0;entryX=0.306;entryY=0.004;entryDx=0;entryDy=0;entryPerimeter=0;" parent="1" source="PMqnE4ja0fSdaOJwFotB-101" target="PMqnE4ja0fSdaOJwFotB-95" edge="1">
          <mxGeometry relative="1" as="geometry">
            <mxPoint x="1025" y="560" as="sourcePoint" />
            <mxPoint x="1185" y="560" as="targetPoint" />
          </mxGeometry>
        </mxCell>
        <mxCell id="PMqnE4ja0fSdaOJwFotB-148" value="" style="endArrow=none;html=1;rounded=0;exitX=0;exitY=1;exitDx=0;exitDy=0;entryX=0.5;entryY=0;entryDx=0;entryDy=0;" parent="1" source="PMqnE4ja0fSdaOJwFotB-102" target="PMqnE4ja0fSdaOJwFotB-95" edge="1">
          <mxGeometry relative="1" as="geometry">
            <mxPoint x="1018" y="569" as="sourcePoint" />
            <mxPoint x="1032" y="583" as="targetPoint" />
          </mxGeometry>
        </mxCell>
        <mxCell id="PMqnE4ja0fSdaOJwFotB-149" value="" style="endArrow=none;html=1;rounded=0;exitX=0.754;exitY=0.942;exitDx=0;exitDy=0;exitPerimeter=0;entryX=0.25;entryY=0;entryDx=0;entryDy=0;" parent="1" source="PMqnE4ja0fSdaOJwFotB-109" target="PMqnE4ja0fSdaOJwFotB-103" edge="1">
          <mxGeometry relative="1" as="geometry">
            <mxPoint x="1415" y="560" as="sourcePoint" />
            <mxPoint x="1575" y="560" as="targetPoint" />
          </mxGeometry>
        </mxCell>
        <mxCell id="PMqnE4ja0fSdaOJwFotB-150" value="" style="endArrow=none;html=1;rounded=0;exitX=0.303;exitY=0.963;exitDx=0;exitDy=0;exitPerimeter=0;entryX=0.549;entryY=0.001;entryDx=0;entryDy=0;entryPerimeter=0;" parent="1" source="PMqnE4ja0fSdaOJwFotB-110" target="PMqnE4ja0fSdaOJwFotB-103" edge="1">
          <mxGeometry relative="1" as="geometry">
            <mxPoint x="1408" y="563" as="sourcePoint" />
            <mxPoint x="1425" y="583" as="targetPoint" />
          </mxGeometry>
        </mxCell>
        <mxCell id="PMqnE4ja0fSdaOJwFotB-151" value="" style="endArrow=none;html=1;rounded=0;exitX=0.946;exitY=0.302;exitDx=0;exitDy=0;exitPerimeter=0;entryX=0;entryY=0.75;entryDx=0;entryDy=0;" parent="1" source="PMqnE4ja0fSdaOJwFotB-31" target="PMqnE4ja0fSdaOJwFotB-12" edge="1">
          <mxGeometry relative="1" as="geometry">
            <mxPoint x="395" y="750" as="sourcePoint" />
            <mxPoint x="555" y="750" as="targetPoint" />
          </mxGeometry>
        </mxCell>
        <mxCell id="PMqnE4ja0fSdaOJwFotB-152" value="" style="endArrow=none;html=1;rounded=0;exitX=1;exitY=0;exitDx=0;exitDy=0;entryX=0.128;entryY=0.992;entryDx=0;entryDy=0;entryPerimeter=0;" parent="1" source="PMqnE4ja0fSdaOJwFotB-32" target="PMqnE4ja0fSdaOJwFotB-12" edge="1">
          <mxGeometry relative="1" as="geometry">
            <mxPoint x="389" y="749" as="sourcePoint" />
            <mxPoint x="412" y="740" as="targetPoint" />
          </mxGeometry>
        </mxCell>
        <mxCell id="PMqnE4ja0fSdaOJwFotB-153" value="" style="endArrow=none;html=1;rounded=0;exitX=1;exitY=0;exitDx=0;exitDy=0;entryX=0.25;entryY=1;entryDx=0;entryDy=0;" parent="1" source="PMqnE4ja0fSdaOJwFotB-33" target="PMqnE4ja0fSdaOJwFotB-12" edge="1">
          <mxGeometry relative="1" as="geometry">
            <mxPoint x="398" y="784" as="sourcePoint" />
            <mxPoint x="425" y="740" as="targetPoint" />
          </mxGeometry>
        </mxCell>
        <mxCell id="PMqnE4ja0fSdaOJwFotB-154" value="" style="endArrow=none;html=1;rounded=0;exitX=0.5;exitY=0;exitDx=0;exitDy=0;entryX=0.369;entryY=1;entryDx=0;entryDy=0;entryPerimeter=0;" parent="1" source="PMqnE4ja0fSdaOJwFotB-34" target="PMqnE4ja0fSdaOJwFotB-12" edge="1">
          <mxGeometry relative="1" as="geometry">
            <mxPoint x="420" y="824" as="sourcePoint" />
            <mxPoint x="442" y="740" as="targetPoint" />
          </mxGeometry>
        </mxCell>
        <mxCell id="PMqnE4ja0fSdaOJwFotB-155" value="" style="endArrow=none;html=1;rounded=0;exitX=0.419;exitY=0;exitDx=0;exitDy=0;entryX=0.5;entryY=1;entryDx=0;entryDy=0;exitPerimeter=0;" parent="1" source="PMqnE4ja0fSdaOJwFotB-35" target="PMqnE4ja0fSdaOJwFotB-12" edge="1">
          <mxGeometry relative="1" as="geometry">
            <mxPoint x="445" y="840" as="sourcePoint" />
            <mxPoint x="455" y="740" as="targetPoint" />
          </mxGeometry>
        </mxCell>
        <mxCell id="PMqnE4ja0fSdaOJwFotB-156" value="" style="endArrow=none;html=1;rounded=0;exitX=0;exitY=0;exitDx=0;exitDy=0;entryX=0.636;entryY=1;entryDx=0;entryDy=0;entryPerimeter=0;" parent="1" source="Pf_q79F2jRF7PTQDFsld-1" target="PMqnE4ja0fSdaOJwFotB-12" edge="1">
          <mxGeometry relative="1" as="geometry">
            <mxPoint x="508.78679656440363" y="814.3933982822018" as="sourcePoint" />
            <mxPoint x="470" y="740" as="targetPoint" />
          </mxGeometry>
        </mxCell>
        <mxCell id="PMqnE4ja0fSdaOJwFotB-157" value="" style="endArrow=none;html=1;rounded=0;exitX=0;exitY=0;exitDx=0;exitDy=0;entryX=0.783;entryY=1;entryDx=0;entryDy=0;entryPerimeter=0;" parent="1" source="PMqnE4ja0fSdaOJwFotB-75" target="PMqnE4ja0fSdaOJwFotB-12" edge="1">
          <mxGeometry relative="1" as="geometry">
            <mxPoint x="504" y="794" as="sourcePoint" />
            <mxPoint x="485" y="740" as="targetPoint" />
          </mxGeometry>
        </mxCell>
        <mxCell id="PMqnE4ja0fSdaOJwFotB-158" value="(1,N)" style="text;html=1;align=center;verticalAlign=middle;resizable=0;points=[];autosize=1;strokeColor=none;fillColor=none;" parent="1" vertex="1">
          <mxGeometry x="305" y="595" width="50" height="30" as="geometry" />
        </mxCell>
        <mxCell id="PMqnE4ja0fSdaOJwFotB-159" value="(1,N)" style="text;html=1;align=center;verticalAlign=middle;resizable=0;points=[];autosize=1;strokeColor=none;fillColor=none;" parent="1" vertex="1">
          <mxGeometry x="532.5" y="595" width="50" height="30" as="geometry" />
        </mxCell>
        <mxCell id="PMqnE4ja0fSdaOJwFotB-160" value="(N,N)" style="text;html=1;align=center;verticalAlign=middle;resizable=0;points=[];autosize=1;strokeColor=none;fillColor=none;" parent="1" vertex="1">
          <mxGeometry x="420" y="530" width="50" height="30" as="geometry" />
        </mxCell>
        <mxCell id="PMqnE4ja0fSdaOJwFotB-161" value="(1,1)" style="text;html=1;align=center;verticalAlign=middle;resizable=0;points=[];autosize=1;strokeColor=none;fillColor=none;" parent="1" vertex="1">
          <mxGeometry x="245" y="360" width="50" height="30" as="geometry" />
        </mxCell>
        <mxCell id="PMqnE4ja0fSdaOJwFotB-162" value="(1,N)" style="text;html=1;align=center;verticalAlign=middle;resizable=0;points=[];autosize=1;strokeColor=none;fillColor=none;" parent="1" vertex="1">
          <mxGeometry x="240" y="545" width="50" height="30" as="geometry" />
        </mxCell>
        <mxCell id="PMqnE4ja0fSdaOJwFotB-163" value="(1,N)" style="text;html=1;align=center;verticalAlign=middle;resizable=0;points=[];autosize=1;strokeColor=none;fillColor=none;" parent="1" vertex="1">
          <mxGeometry x="305" y="445" width="50" height="30" as="geometry" />
        </mxCell>
        <mxCell id="PMqnE4ja0fSdaOJwFotB-165" value="Aula" style="ellipse;whiteSpace=wrap;html=1;align=center;" parent="1" vertex="1">
          <mxGeometry x="532.5" y="730" width="62" height="30" as="geometry" />
        </mxCell>
        <mxCell id="PMqnE4ja0fSdaOJwFotB-166" value="" style="endArrow=none;html=1;rounded=0;exitX=0.097;exitY=0.233;exitDx=0;exitDy=0;entryX=0.944;entryY=1;entryDx=0;entryDy=0;entryPerimeter=0;exitPerimeter=0;" parent="1" source="PMqnE4ja0fSdaOJwFotB-165" target="PMqnE4ja0fSdaOJwFotB-12" edge="1">
          <mxGeometry relative="1" as="geometry">
            <mxPoint x="524" y="754" as="sourcePoint" />
            <mxPoint x="502" y="740" as="targetPoint" />
          </mxGeometry>
        </mxCell>
        <mxCell id="Pf_q79F2jRF7PTQDFsld-1" value="Novedades" style="ellipse;whiteSpace=wrap;html=1;align=center;" parent="1" vertex="1">
          <mxGeometry x="505" y="810" width="65" height="30" as="geometry" />
        </mxCell>
      </root>
    </mxGraphModel>
  </diagram>
</mxfile>
